<?xml version="1.0" encoding="utf-8"?>
<!-- Generator: Adobe Illustrator 27.9.0, SVG Export Plug-In . SVG Version: 6.00 Build 0)  -->
<svg version="1.1" id="Layer_1" xmlns="http://www.w3.org/2000/svg" xmlns:xlink="http://www.w3.org/1999/xlink" x="0px" y="0px"
	 viewBox="0 0 1050 230" style="enable-background:new 0 0 1050 230;" xml:space="preserve">
<style type="text/css">
	.st0{fill:#0099DC;}
	.st1{fill:#3A4856;}
	.st2{fill:#FFFFFF;}
</style>
<g>
	<path class="st0" d="M184.9,53.9l-67.8-28.3c-1.7-0.7-4.7-1.3-6.5-1.3s-4.8,0.6-6.5,1.3L36.3,53.9c-6.3,2.6-10.4,8.8-10.4,15.3
		c0,90.9,66.8,135.7,84.4,135.7c11.3,0,41.8-17.9,63-53.5c4.1-7,7.9-14.6,11.1-23c0.1-0.2,0.1-0.3,0.2-0.5
		C191,111.2,195,91.6,195,69.3C195.3,62.7,191.2,56.5,184.9,53.9z"/>
</g>
<path class="st1" d="M840,76.7c-1.5-1.5-2.3-3.4-2.3-5.6s0.7-4,2.2-5.4c1.6-1.6,3.9-2.4,6.1-2.3c1.9,0.1,3.5,0.8,4.8,2.2
	c1.5,1.5,2.3,3.3,2.3,5.5c0,2.5-1,4.6-3,6.2c-1.1,0.9-2.5,1.5-3.9,1.6C843.8,79.1,841.7,78.4,840,76.7z"/>
<path class="st1" d="M537.8,165.8c-6.2-3.5-11-8.4-14.6-14.7c-3.6-6.4-5.3-13.8-5.3-22.3s1.8-15.9,5.4-22.3
	c3.6-6.4,8.5-11.3,14.7-14.7c6.2-3.5,13.2-5.2,20.9-5.2s14.7,1.7,21,5.2s11.2,8.4,14.7,14.7c3.6,6.4,5.3,13.8,5.3,22.3
	c0,8.4-1.8,15.8-5.4,22.2c-3.6,6.4-8.6,11.3-14.9,14.8c-6.3,3.5-13.3,5.2-21,5.2C550.9,170.9,543.9,169.2,537.8,165.8z M573.6,158.1
	c4.6-2.5,8.3-6.2,11.2-11.1c2.9-5,4.3-11,4.3-18.3c0-7.2-1.4-13.3-4.2-18.3s-6.5-8.7-11.1-11.1c-4.6-2.5-9.6-3.7-15-3.7
	s-10.4,1.2-15,3.7s-8.3,6.2-11,11.1c-2.8,5-4.1,11-4.1,18.3c0,7.2,1.4,13.3,4.1,18.3c2.8,5,6.4,8.7,11,11.1
	c4.6,2.5,9.5,3.7,14.9,3.7C564,161.8,569,160.6,573.6,158.1z"/>
<path class="st1" d="M762.8,165.8c-6.2-3.5-11-8.4-14.6-14.7c-3.6-6.4-5.3-13.8-5.3-22.3s1.8-15.9,5.4-22.3
	c3.6-6.4,8.5-11.3,14.7-14.7c6.2-3.5,13.2-5.2,20.9-5.2s14.7,1.7,21,5.2s11.2,8.4,14.7,14.7c3.6,6.4,5.3,13.8,5.3,22.3
	c0,8.4-1.8,15.8-5.4,22.2c-3.6,6.4-8.6,11.3-14.9,14.8c-6.3,3.5-13.3,5.2-21,5.2C775.9,170.9,769,169.2,762.8,165.8z M798.6,158.1
	c4.6-2.5,8.3-6.2,11.2-11.1c2.9-5,4.3-11,4.3-18.3c0-7.2-1.4-13.3-4.2-18.3s-6.5-8.7-11.1-11.1c-4.6-2.5-9.6-3.7-15-3.7
	s-10.4,1.2-15,3.7s-8.3,6.2-11,11.1c-2.8,5-4.1,11-4.1,18.3c0,7.2,1.4,13.3,4.1,18.3c2.8,5,6.4,8.7,11,11.1
	c4.6,2.5,9.5,3.7,14.9,3.7C789,161.8,794,160.6,798.6,158.1z"/>
<path class="st0" d="M1010.8,168.2c-1.5-1.5-2.2-3.4-2.2-5.6c0-2.2,0.7-4,2.2-5.5c1.4-1.4,3.3-2.2,5.5-2.2c2.1,0,3.9,0.7,5.3,2.2
	c1.5,1.5,2.2,3.3,2.2,5.5s-0.7,4.1-2.2,5.6s-3.2,2.3-5.3,2.3C1014.1,170.5,1012.3,169.7,1010.8,168.2z"/>
<path class="st1" d="M290.3,144.8H243c-0.1,0-0.3,0.1-0.3,0.2l-9,24.5c0,0.1-0.2,0.2-0.3,0.2H223c-0.2,0-0.4-0.2-0.3-0.5l38.1-103
	c0-0.1,0.2-0.2,0.3-0.2h11.4c0.1,0,0.3,0.1,0.3,0.2l37.9,103c0.1,0.2-0.1,0.5-0.3,0.5H300c-0.1,0-0.3-0.1-0.3-0.2l-9-24.5
	C290.5,144.9,290.4,144.8,290.3,144.8z M287.2,135.6l-20.3-55.5c-0.1-0.3-0.5-0.3-0.6,0L246,135.6c-0.1,0.2,0.1,0.5,0.3,0.5h40.5
	C287.1,136.1,287.3,135.9,287.2,135.6z"/>
<path class="st1" d="M344.2,90.4c4.7-2.8,10.4-4.2,17.2-4.2c0.2,0,0.4,0.2,0.4,0.3v10.6h-2.9c-7.6,0-13.7,2.1-18.3,6.2
	c-4.6,4.1-6.9,11-6.9,20.6v45.5c0,0.2-0.2,0.3-0.3,0.3h-9.8c-0.2,0-0.3-0.2-0.3-0.3V88c0-0.2,0.2-0.3,0.3-0.3h9.8
	c0.2,0,0.3,0.2,0.3,0.3v12.8c0,0.4,0.5,0.5,0.6,0.1C336.5,96.5,339.9,93,344.2,90.4z"/>
<path class="st1" d="M494.4,95.3c6.1,6.1,9.1,14.9,9.1,26.4v47.7c0,0.2-0.2,0.3-0.3,0.3h-9.7c-0.2,0-0.3-0.2-0.3-0.3v-46.5
	c0-8.9-2.2-15.7-6.5-20.4c-4.3-4.7-10.2-7.1-17.6-7.1c-7.7,0-13.9,2.6-18.5,7.7s-6.9,12.5-6.9,22.2v44.1c0,0.2-0.2,0.3-0.3,0.3h-9.7
	c-0.2,0-0.3-0.2-0.3-0.3v-46.5c0-8.9-2.2-15.7-6.5-20.4c-4.3-4.7-10.2-7.1-17.7-7.1c-7.7,0-13.9,2.6-18.5,7.7s-6.9,12.5-6.9,22.2
	v44.1c0,0.2-0.2,0.3-0.3,0.3h-9.8c-0.2,0-0.3-0.2-0.3-0.3V88c0-0.2,0.2-0.3,0.3-0.3h9.8c0.2,0,0.3,0.2,0.3,0.3v12.5
	c0,0.3,0.4,0.5,0.6,0.1c2.6-4.5,6.1-8,10.5-10.5c4.8-2.7,10.2-4,16.1-4c7.1,0,13.3,1.7,18.7,5.1c5.1,3.3,8.9,8,11.3,14.2
	c0.1,0.3,0.5,0.3,0.6,0c2.2-6.1,5.9-10.8,11.1-14.1c5.4-3.5,11.4-5.2,18.3-5.2C480.5,86.2,488.3,89.2,494.4,95.3z"/>
<path class="st1" d="M633.9,90.4c4.7-2.8,10.4-4.2,17.2-4.2c0.2,0,0.4,0.2,0.4,0.3v10.6h-2.9c-7.6,0-13.7,2.1-18.3,6.2
	s-6.9,11-6.9,20.6v45.5c0,0.2-0.2,0.3-0.3,0.3h-9.8c-0.2,0-0.3-0.2-0.3-0.3V88c0-0.2,0.2-0.3,0.3-0.3h9.8c0.2,0,0.3,0.2,0.3,0.3
	v12.8c0,0.4,0.5,0.5,0.6,0.1C626.3,96.5,629.6,93,633.9,90.4z"/>
<path class="st1" d="M727.6,116.7c-5.9,5.5-14.8,8.3-26.6,8.3h-20.8c-0.2,0-0.3,0.2-0.3,0.3v44.1c0,0.2-0.2,0.3-0.3,0.3h-9.8
	c-0.2,0-0.3-0.2-0.3-0.3V65.1c0-0.2,0.2-0.3,0.3-0.3H701c11.7,0,20.6,2.8,26.5,8.3c6,5.5,8.9,12.8,8.9,21.9
	C736.4,103.9,733.5,111.2,727.6,116.7z M725.6,94.9c0-7-2-12.3-5.9-15.9s-10.2-5.4-18.8-5.4h-20.8c-0.2,0-0.3,0.2-0.3,0.3v41.7
	c0,0.2,0.2,0.3,0.3,0.3H701C717.4,116,725.6,108.9,725.6,94.9z"/>
<path class="st1" d="M850.7,88.4v81.4c0,0.2-0.2,0.3-0.3,0.3h-9.8c-0.2,0-0.3-0.2-0.3-0.3V88.4c0-0.2,0.2-0.3,0.3-0.3h9.8
	C850.5,88.1,850.7,88.3,850.7,88.4z"/>
<path class="st1" d="M934.7,95.3c6.2,6.1,9.3,14.9,9.3,26.4v47.7c0,0.2-0.2,0.3-0.3,0.3H934c-0.2,0-0.3-0.2-0.3-0.3v-46.5
	c0-8.9-2.2-15.7-6.7-20.4c-4.5-4.7-10.5-7.1-18.3-7.1c-7.9,0-14.2,2.5-18.9,7.5s-7.1,12.4-7.1,22.1v44.4c0,0.2-0.2,0.3-0.3,0.3h-9.8
	c-0.2,0-0.3-0.2-0.3-0.3V88c0-0.2,0.2-0.3,0.3-0.3h9.8c0.2,0,0.3,0.2,0.3,0.3v12.4c0,0.3,0.4,0.5,0.6,0.2c2.6-4.5,6.1-7.9,10.7-10.4
	c4.9-2.7,10.5-4,16.7-4C920.5,86.2,928.5,89.2,934.7,95.3z"/>
<path class="st1" d="M975,96.6c-0.2,0-0.3,0.2-0.3,0.3v50.6c0,5,0.9,8.5,2.9,10.4c1.9,1.9,5.3,2.9,10.1,2.9h9.3
	c0.2,0,0.3,0.2,0.3,0.3v8.3c0,0.2-0.2,0.3-0.3,0.3h-10.9c-7.4,0-12.9-1.7-16.5-5.2s-5.4-9.1-5.4-17.1V96.9c0-0.2-0.2-0.3-0.3-0.3
	h-10.7c-0.2,0-0.3-0.2-0.3-0.3V88c0-0.2,0.2-0.3,0.3-0.3h10.7c0.2,0,0.3-0.2,0.3-0.3V67.5c0-0.2,0.2-0.3,0.3-0.3h10
	c0.2,0,0.3,0.2,0.3,0.3v19.9c0,0.2,0.2,0.3,0.3,0.3H997c0.2,0,0.3,0.2,0.3,0.3v8.2c0,0.2-0.2,0.3-0.3,0.3L975,96.6L975,96.6z"/>
<path class="st2" d="M184.6,128c-0.1,0.2-0.1,0.3-0.2,0.5c-3.2,8.4-7,16-11.1,23c-11.2-15.7-22.4-31.4-33.6-47.2
	c-3.8-5.3-7.7-10.7-13-14.4c-11.2-7.8-27.8-6-37.6,3.6C80.3,102,77.4,116,82,127.4c4.6,11.3,16.4,19.4,28.7,19.4s24.1-7.8,28.8-19.1
	c4.7,6.4,9.4,12.7,14.1,19.1c-6.7,9.4-16.6,16.5-27.7,19.8c-11.1,3.4-22.6,2.6-33.5-1c-8.7-2.9-16.5-9-22.3-16.1
	c-5.9-7.2-10-15.9-11.5-25.1c-0.2-1.5-0.4-3-0.5-4.4c-1.6-20,9.3-40.3,26.7-50c8.6-4.8,18.7-6.9,28.6-6.4c9.8,0.6,19.7,3.8,27.6,9.7
	c8.8,6.5,15.4,15.5,21.7,24.3c6.9,9.7,13.6,19.5,20.8,28.9C184,127.2,184.3,127.7,184.6,128z"/>
</svg>
